@startuml
skinparam monochrome true
skinparam packageStyle rectangle
skinparam shadowing false

'left to right direction

skinparam classAttributeIconSize 0

hide circle
hide methods

'title Domain Model

'class Platform {
'  -description
'}

class Owner{
    name
    website
    phoneNumber
    email
}

class Request {
   reference
   description
   informalDesc
   technicalDesc
   duration
   cost
}

class Agent {

}



'class User {
'    name
'    email
'    password
'}

'Platform "1" -- "*" Owner : has registered >
'Platform "1" -- "*" Category : defines >
Owner "1" - "0..*" Request: Sends >
Request "*" - "1" Agent: If sent to>
Agent "1" - "0..*" System: If accepted >
@enduml